Coordinates
version=1
nRows=8
nColumns=36
inDegrees=yes

Units are S.I. units (second, meters, Newtons, ...)
If the header above contains a line with 'inDegrees', this indicates whether rotational values are in degrees (yes) or radians (no).

endheader
time	pelvis_tilt	pelvis_list	pelvis_rotation	pelvis_tx	pelvis_ty	pelvis_tz	hip_flexion_r	hip_adduction_r	hip_rotation_r	knee_angle_r	knee_angle_r_beta	ankle_angle_r	subtalar_angle_r	mtp_angle_r	hip_flexion_l	hip_adduction_l	hip_rotation_l	knee_angle_l	knee_angle_l_beta	ankle_angle_l	subtalar_angle_l	mtp_angle_l	lumbar_extension	lumbar_bending	lumbar_rotation	arm_flex_r	arm_add_r	arm_rot_r	elbow_flex_r	pro_sup_r	arm_flex_l	arm_add_l	arm_rot_l	elbow_flex_l	pro_sup_l
     10.66666670	      1.96749878	      6.92043202	      8.44189885	      0.61107474	      0.91013225	      0.04120819	      2.28490365	      0.36652790	      7.60187724	     11.96435926	      0.20881746	     12.74737164	     -1.48300442	     -7.49999987	     25.48970701	     -6.09734732	    -20.40559201	     11.18404078	      0.19519834	     -7.81929757	     -1.54402920	     -7.49999987	    -10.06075851	     -3.42541364	     10.05394815	     40.48454669	      0.26939693	     65.64750963	    122.59943632	     80.93647188	     45.42365526	      8.95438089	     62.56530121	    131.23474766	     65.67936180
     10.68333330	      2.04879846	      6.93603594	      8.24198413	      0.61664008	      0.91332595	      0.04468065	      2.28369004	      0.37838178	      7.78082987	     11.99639996	      0.20937668	     12.56601680	     -1.35195759	     -7.49999987	     25.65831670	     -6.33576574	    -20.12287436	     11.34944053	      0.19808511	     -8.06822897	     -1.33245543	     -7.49999987	    -10.20329132	     -3.50485198	     10.09867113	     40.38900743	      0.27251977	     65.70202521	    122.58763252	     80.96433447	     45.29078159	      8.88409749	     62.57758714	    131.23119345	     65.68865752
     10.70000000	      1.93548717	      6.63589779	      8.04983385	      0.61178125	      0.91284998	      0.04139470	      2.69267861	      0.63807035	      7.85197570	     12.14977936	      0.21205365	     12.27105611	     -1.45714141	     -7.49999987	     26.43015746	     -6.79893271	    -20.00582169	     11.74465283	      0.20498286	     -7.82927402	     -1.08231882	     -7.49999987	    -10.20821409	     -2.92653629	     10.19262563	     40.52403003	      0.07773052	     66.08266435	    122.72560721	     81.23978476	     45.09417373	      8.99661299	     62.52298485	    131.35421442	     65.80949777
     10.71666670	      1.94136711	      6.46487093	      7.69499588	      0.61212858	      0.91004069	      0.04194291	      3.11613920	      0.81840738	      8.05808471	     12.53361854	      0.21875291	     12.36066980	     -1.51382007	     -7.49999987	     27.06101644	     -7.25579056	    -19.65560056	     12.45529478	      0.21738590	     -7.60973971	     -1.50401604	     -7.49999987	    -10.33875499	     -2.64363247	     10.24450991	     40.71813596	     -0.10238301	     66.13770267	    123.17521518	     80.78983686	     45.02531185	      9.04265917	     62.34792229	    131.47336966	     65.78076251
     10.73333330	      2.11395667	      6.50963204	      7.54023439	      0.61774675	      0.91155100	      0.03938767	      2.75741818	      0.70420135	      8.03225543	     12.60184322	      0.21994366	     12.45452225	     -1.59336998	     -7.49999987	     27.17065794	     -7.39881210	    -19.57339203	     12.82595712	      0.22385518	     -7.39920913	     -1.56626963	     -7.49999987	    -10.37583628	     -2.43658524	     10.19389222	     40.47769901	     -0.24739553	     66.26171575	    123.29659595	     80.85139734	     44.83229387	      8.98917697	     62.31205092	    131.34087730	     65.80994692
     10.75000000	      2.10304384	      6.43712944	      7.56346248	      0.61761152	      0.91123276	      0.03930810	      2.64354123	      0.68169145	      7.94852533	     12.62045591	      0.22026851	     12.52926129	     -1.50546653	     -7.49999987	     27.54415562	     -7.54725801	    -19.25175982	     13.37440199	      0.23342735	     -6.81221414	     -1.59134179	     -7.49999987	    -10.20872146	     -2.21765623	     10.24943857	     40.34549137	     -0.49140516	     66.22487838	    123.59738330	     79.73939005	     44.80287009	      9.22734755	     62.13945473	    131.05966875	     65.61024428
     10.76666670	      2.12676152	      6.50160437	      7.44298709	      0.61761089	      0.91183974	      0.03967233	      2.65306529	      0.60502459	      8.04152478	     13.02684895	      0.22736141	     12.92009722	     -1.46446565	     -7.49999987	     27.83120329	     -7.64410286	    -19.05271235	     13.90413599	      0.24267295	     -6.61655707	     -1.86687428	     -7.49999987	    -10.13963550	     -2.21936319	     10.27806169	     40.23339231	     -0.45753790	     66.37528642	    123.61200775	     78.85780292	     44.71196765	      9.25486150	     62.10320857	    130.93498618	     65.43385315
     10.78333330	      2.13873739	      6.51157489	      7.17047622	      0.61175093	      0.91048670	      0.04220720	      3.03905021	      0.69160577	      8.26865070	     13.57876774	      0.23699421	     13.13585644	     -1.48130336	     -7.49999987	     28.23185957	     -7.92120559	    -19.06703547	     14.29180730	      0.24943909	     -6.60833965	     -2.20438224	     -7.49999987	    -10.25320942	     -2.23134195	     10.51516559	     40.49315474	     -0.18572744	     66.60219844	    123.73643154	     79.15714785	     44.98058246	      9.33139188	     61.97734223	    130.72379173	     65.55427762
